<svg xmlns="http://www.w3.org/2000/svg" width="2000" height="500"><path d="M846,192L1133,-175L831,-105Z" fill="#ffddd7" stroke="#ffddd7" stroke-width="1.51"/><path d="M846,192L1254,286L1133,-175Z" fill="#fbeeec" stroke="#fbeeec" stroke-width="1.51"/><path d="M846,192L824,565L1254,286Z" fill="#f6fafc" stroke="#f6fafc" stroke-width="1.51"/><path d="M458,283L824,565L846,192Z" fill="#f7e8e7" stroke="#f7e8e7" stroke-width="1.51"/><path d="M1254,286L1617,162L1133,-175Z" fill="#ede5e8" stroke="#ede5e8" stroke-width="1.51"/><path d="M1576,709L1617,162L1254,286Z" fill="#d7ecfa" stroke="#d7ecfa" stroke-width="1.51"/><path d="M831,-105L458,283L846,192Z" fill="#ffded8" stroke="#ffded8" stroke-width="1.51"/><path d="M1133,-175L1174,-582L831,-105Z" fill="#ffc6bc" stroke="#ffc6bc" stroke-width="1.51"/><path d="M831,-105L260,-243L458,283Z" fill="#ffc3b8" stroke="#ffc3b8" stroke-width="1.51"/><path d="M1741,-574L1174,-582L1133,-175Z" fill="#f1b2ac" stroke="#f1b2ac" stroke-width="1.51"/><path d="M824,565L1290,641L1254,286Z" fill="#e1f1fb" stroke="#e1f1fb" stroke-width="1.51"/><path d="M1617,162L1729,-96L1133,-175Z" fill="#e6d4d7" stroke="#e6d4d7" stroke-width="1.51"/><path d="M1174,-582L686,-677L831,-105Z" fill="#ffb2a6" stroke="#ffb2a6" stroke-width="1.51"/><path d="M448,-622L260,-243L831,-105Z" fill="#ffa395" stroke="#ffa395" stroke-width="1.51"/><path d="M686,-677L448,-622L831,-105Z" fill="#fda292" stroke="#fda292" stroke-width="1.51"/><path d="M1290,641L1576,709L1254,286Z" fill="#cee8f9" stroke="#cee8f9" stroke-width="1.51"/><path d="M1617,162L1970,134L1729,-96Z" fill="#d5d7e2" stroke="#d5d7e2" stroke-width="1.51"/><path d="M1544,1027L1576,709L1290,641Z" fill="#b0daf4" stroke="#b0daf4" stroke-width="1.51"/><path d="M1174,-582L1741,-574L686,-677Z" fill="#f5a89d" stroke="#f5a89d" stroke-width="1.51"/><path d="M1729,-96L1741,-574L1133,-175Z" fill="#eababa" stroke="#eababa" stroke-width="1.51"/><path d="M1729,-96L2001,-278L1741,-574Z" fill="#dab0b4" stroke="#dab0b4" stroke-width="1.51"/><path d="M2040,630L1970,134L1617,162Z" fill="#c6e4f7" stroke="#c6e4f7" stroke-width="1.51"/><path d="M458,283L404,770L824,565Z" fill="#e8d6d9" stroke="#e8d6d9" stroke-width="1.51"/><path d="M824,565L1107,1019L1290,641Z" fill="#cde8f9" stroke="#cde8f9" stroke-width="1.51"/><path d="M-137,592L404,770L458,283Z" fill="#ebc1c1" stroke="#ebc1c1" stroke-width="1.51"/><path d="M820,1143L1107,1019L824,565Z" fill="#c3d7eb" stroke="#c3d7eb" stroke-width="1.51"/><path d="M1970,134L2001,-278L1729,-96Z" fill="#d1c3ce" stroke="#d1c3ce" stroke-width="1.51"/><path d="M1741,-574L2468,-623L686,-677Z" fill="#e09d99" stroke="#e09d99" stroke-width="1.51"/><path d="M2001,-278L1946,-565L1741,-574Z" fill="#d5a1a4" stroke="#d5a1a4" stroke-width="1.51"/><path d="M1576,709L2040,630L1617,162Z" fill="#bce0f7" stroke="#bce0f7" stroke-width="1.51"/><path d="M1107,1019L1544,1027L1290,641Z" fill="#b0d5f0" stroke="#b0d5f0" stroke-width="1.51"/><path d="M1107,1019L820,1143L1544,1027Z" fill="#aacbe8" stroke="#aacbe8" stroke-width="1.51"/><path d="M404,770L820,1143L824,565Z" fill="#cdcfdd" stroke="#cdcfdd" stroke-width="1.51"/><path d="M260,-243L-139,295L458,283Z" fill="#ffbbb0" stroke="#ffbbb0" stroke-width="1.51"/><path d="M-58,-590L-78,-233L260,-243Z" fill="#fb8372" stroke="#fb8372" stroke-width="1.51"/><path d="M1984,1094L2040,630L1576,709Z" fill="#94cdef" stroke="#94cdef" stroke-width="1.51"/><path d="M1970,134L2368,-150L2001,-278Z" fill="#c6b6c5" stroke="#c6b6c5" stroke-width="1.51"/><path d="M404,770L300,1158L820,1143Z" fill="#bdb3c5" stroke="#bdb3c5" stroke-width="1.51"/><path d="M-78,-233L-139,295L260,-243Z" fill="#fe9f90" stroke="#fe9f90" stroke-width="1.51"/><path d="M-78,-233L-476,230L-139,295Z" fill="#fea495" stroke="#fea495" stroke-width="1.51"/><path d="M448,-622L-58,-590L260,-243Z" fill="#fa8271" stroke="#fa8271" stroke-width="1.51"/><path d="M-388,-660L-58,-590L448,-622Z" fill="#f26a59" stroke="#f26a59" stroke-width="1.51"/><path d="M-139,295L-137,592L458,283Z" fill="#f9bdb7" stroke="#f9bdb7" stroke-width="1.51"/><path d="M-108,1072L300,1158L404,770Z" fill="#c5a2b0" stroke="#c5a2b0" stroke-width="1.51"/><path d="M2001,-278L2468,-623L1946,-565Z" fill="#c8939b" stroke="#c8939b" stroke-width="1.51"/><path d="M2392,336L2368,-150L1970,134Z" fill="#b9c4d9" stroke="#b9c4d9" stroke-width="1.51"/><path d="M2040,630L2392,336L1970,134Z" fill="#b2d3ed" stroke="#b2d3ed" stroke-width="1.51"/><path d="M2040,630L2361,747L2392,336Z" fill="#95c3e7" stroke="#95c3e7" stroke-width="1.51"/><path d="M1544,1027L1984,1094L1576,709Z" fill="#92c7ea" stroke="#92c7ea" stroke-width="1.51"/><path d="M820,1143L1984,1094L1544,1027Z" fill="#95c2e4" stroke="#95c2e4" stroke-width="1.51"/><path d="M-58,-590L-447,-264L-78,-233Z" fill="#f67665" stroke="#f67665" stroke-width="1.51"/><path d="M-139,295L-451,592L-137,592Z" fill="#eeaaa4" stroke="#eeaaa4" stroke-width="1.51"/><path d="M-137,592L-108,1072L404,770Z" fill="#d6aab0" stroke="#d6aab0" stroke-width="1.51"/><path d="M-447,-264L-476,230L-78,-233Z" fill="#f88b7a" stroke="#f88b7a" stroke-width="1.51"/><path d="M1984,1094L2361,747L2040,630Z" fill="#82bee6" stroke="#82bee6" stroke-width="1.51"/><path d="M-451,592L-108,1072L-137,592Z" fill="#d9a1a2" stroke="#d9a1a2" stroke-width="1.51"/><path d="M686,-677L-388,-660L448,-622Z" fill="#f57665" stroke="#f57665" stroke-width="1.51"/><path d="M-58,-590L-388,-660L-447,-264Z" fill="#f06453" stroke="#f06453" stroke-width="1.51"/><path d="M-476,230L-451,592L-139,295Z" fill="#f6a99f" stroke="#f6a99f" stroke-width="1.51"/><path d="M1946,-565L2468,-623L1741,-574Z" fill="#cb9095" stroke="#cb9095" stroke-width="1.51"/><path d="M2368,-150L2468,-623L2001,-278Z" fill="#c196a4" stroke="#c196a4" stroke-width="1.51"/><path d="M2392,336L2468,-623L2368,-150Z" fill="#b6a2b6" stroke="#b6a2b6" stroke-width="1.51"/><path d="M2452,1106L2468,-623L2392,336Z" fill="#a9c7e4" stroke="#a9c7e4" stroke-width="1.51"/><path d="M2361,747L2452,1106L2392,336Z" fill="#7bb6df" stroke="#7bb6df" stroke-width="1.51"/><path d="M1984,1094L2452,1106L2361,747Z" fill="#68aad8" stroke="#68aad8" stroke-width="1.51"/><path d="M820,1143L2452,1106L1984,1094Z" fill="#7db7e0" stroke="#7db7e0" stroke-width="1.51"/><path d="M300,1158L2452,1106L820,1143Z" fill="#a0c4e4" stroke="#a0c4e4" stroke-width="1.51"/><path d="M-451,592L-375,1153L-108,1072Z" fill="#c88e95" stroke="#c88e95" stroke-width="1.51"/><path d="M-108,1072L-375,1153L300,1158Z" fill="#b98b9a" stroke="#b98b9a" stroke-width="1.51"/></svg>