<svg xmlns="http://www.w3.org/2000/svg" width="2000" height="500"><path d="M846,192L1133,-175L831,-105Z" fill="#ffe49b" stroke="#ffe49b" stroke-width="1.51"/><path d="M846,192L1254,286L1133,-175Z" fill="#fdf2b5" stroke="#fdf2b5" stroke-width="1.51"/><path d="M846,192L824,565L1254,286Z" fill="#f9fbcb" stroke="#f9fbcb" stroke-width="1.51"/><path d="M458,283L824,565L846,192Z" fill="#f9eeb8" stroke="#f9eeb8" stroke-width="1.51"/><path d="M1254,286L1617,162L1133,-175Z" fill="#f3edca" stroke="#f3edca" stroke-width="1.51"/><path d="M1576,709L1617,162L1254,286Z" fill="#dbefeb" stroke="#dbefeb" stroke-width="1.51"/><path d="M831,-105L458,283L846,192Z" fill="#ffe89d" stroke="#ffe89d" stroke-width="1.51"/><path d="M1133,-175L1174,-582L831,-105Z" fill="#ffc58a" stroke="#ffc58a" stroke-width="1.51"/><path d="M831,-105L260,-243L458,283Z" fill="#ffce7e" stroke="#ffce7e" stroke-width="1.51"/><path d="M1741,-574L1174,-582L1133,-175Z" fill="#f2aa95" stroke="#f2aa95" stroke-width="1.51"/><path d="M824,565L1290,641L1254,286Z" fill="#e7f4e5" stroke="#e7f4e5" stroke-width="1.51"/><path d="M1617,162L1729,-96L1133,-175Z" fill="#eadab8" stroke="#eadab8" stroke-width="1.51"/><path d="M1174,-582L686,-677L831,-105Z" fill="#fbab73" stroke="#fbab73" stroke-width="1.51"/><path d="M448,-622L260,-243L831,-105Z" fill="#fca663" stroke="#fca663" stroke-width="1.51"/><path d="M686,-677L448,-622L831,-105Z" fill="#f79e61" stroke="#f79e61" stroke-width="1.51"/><path d="M1290,641L1576,709L1254,286Z" fill="#d3ecf4" stroke="#d3ecf4" stroke-width="1.51"/><path d="M1617,162L1970,134L1729,-96Z" fill="#d3d8bd" stroke="#d3d8bd" stroke-width="1.51"/><path d="M1544,1027L1576,709L1290,641Z" fill="#acd4e6" stroke="#acd4e6" stroke-width="1.51"/><path d="M1174,-582L1741,-574L686,-677Z" fill="#ed9b7f" stroke="#ed9b7f" stroke-width="1.51"/><path d="M1729,-96L1741,-574L1133,-175Z" fill="#e9b99f" stroke="#e9b99f" stroke-width="1.51"/><path d="M1729,-96L2001,-278L1741,-574Z" fill="#d5a595" stroke="#d5a595" stroke-width="1.51"/><path d="M2040,630L1970,134L1617,162Z" fill="#c4dcd5" stroke="#c4dcd5" stroke-width="1.51"/><path d="M458,283L404,770L824,565Z" fill="#ebddba" stroke="#ebddba" stroke-width="1.51"/><path d="M824,565L1107,1019L1290,641Z" fill="#cce3d7" stroke="#cce3d7" stroke-width="1.51"/><path d="M-137,592L404,770L458,283Z" fill="#edc3a5" stroke="#edc3a5" stroke-width="1.51"/><path d="M820,1143L1107,1019L824,565Z" fill="#becdc2" stroke="#becdc2" stroke-width="1.51"/><path d="M1970,134L2001,-278L1729,-96Z" fill="#cdbfa8" stroke="#cdbfa8" stroke-width="1.51"/><path d="M1741,-574L2468,-623L686,-677Z" fill="#d48d84" stroke="#d48d84" stroke-width="1.51"/><path d="M2001,-278L1946,-565L1741,-574Z" fill="#cc8d86" stroke="#cc8d86" stroke-width="1.51"/><path d="M1576,709L2040,630L1617,162Z" fill="#bbdeed" stroke="#bbdeed" stroke-width="1.51"/><path d="M1107,1019L1544,1027L1290,641Z" fill="#abcee2" stroke="#abcee2" stroke-width="1.51"/><path d="M1107,1019L820,1143L1544,1027Z" fill="#a5b8ca" stroke="#a5b8ca" stroke-width="1.51"/><path d="M404,770L820,1143L824,565Z" fill="#c9cdb7" stroke="#c9cdb7" stroke-width="1.51"/><path d="M260,-243L-139,295L458,283Z" fill="#ffc07a" stroke="#ffc07a" stroke-width="1.51"/><path d="M-58,-590L-78,-233L260,-243Z" fill="#f67646" stroke="#f67646" stroke-width="1.51"/><path d="M1984,1094L2040,630L1576,709Z" fill="#8abdda" stroke="#8abdda" stroke-width="1.51"/><path d="M1970,134L2368,-150L2001,-278Z" fill="#bfad9f" stroke="#bfad9f" stroke-width="1.51"/><path d="M404,770L300,1158L820,1143Z" fill="#b7a69e" stroke="#b7a69e" stroke-width="1.51"/><path d="M-78,-233L-139,295L260,-243Z" fill="#fb9e5e" stroke="#fb9e5e" stroke-width="1.51"/><path d="M-78,-233L-476,230L-139,295Z" fill="#f69c64" stroke="#f69c64" stroke-width="1.51"/><path d="M448,-622L-58,-590L260,-243Z" fill="#f17746" stroke="#f17746" stroke-width="1.51"/><path d="M-388,-660L-58,-590L448,-622Z" fill="#e25035" stroke="#e25035" stroke-width="1.51"/><path d="M-139,295L-137,592L458,283Z" fill="#faba95" stroke="#faba95" stroke-width="1.51"/><path d="M-108,1072L300,1158L404,770Z" fill="#bc928d" stroke="#bc928d" stroke-width="1.51"/><path d="M2001,-278L2468,-623L1946,-565Z" fill="#ba797d" stroke="#ba797d" stroke-width="1.51"/><path d="M2392,336L2368,-150L1970,134Z" fill="#b4b6b0" stroke="#b4b6b0" stroke-width="1.51"/><path d="M2040,630L2392,336L1970,134Z" fill="#adc7d3" stroke="#adc7d3" stroke-width="1.51"/><path d="M2040,630L2361,747L2392,336Z" fill="#8db2d6" stroke="#8db2d6" stroke-width="1.51"/><path d="M1544,1027L1984,1094L1576,709Z" fill="#87b8d7" stroke="#87b8d7" stroke-width="1.51"/><path d="M820,1143L1984,1094L1544,1027Z" fill="#8daed4" stroke="#8daed4" stroke-width="1.51"/><path d="M-58,-590L-447,-264L-78,-233Z" fill="#ed613c" stroke="#ed613c" stroke-width="1.51"/><path d="M-139,295L-451,592L-137,592Z" fill="#eb9f8e" stroke="#eb9f8e" stroke-width="1.51"/><path d="M-137,592L-108,1072L404,770Z" fill="#d09d90" stroke="#d09d90" stroke-width="1.51"/><path d="M-447,-264L-476,230L-78,-233Z" fill="#ee804c" stroke="#ee804c" stroke-width="1.51"/><path d="M1984,1094L2361,747L2040,630Z" fill="#74a8cf" stroke="#74a8cf" stroke-width="1.51"/><path d="M-451,592L-108,1072L-137,592Z" fill="#d08e85" stroke="#d08e85" stroke-width="1.51"/><path d="M686,-677L-388,-660L448,-622Z" fill="#e3693f" stroke="#e3693f" stroke-width="1.51"/><path d="M-58,-590L-388,-660L-447,-264Z" fill="#df432e" stroke="#df432e" stroke-width="1.51"/><path d="M-476,230L-451,592L-139,295Z" fill="#ee9c7f" stroke="#ee9c7f" stroke-width="1.51"/><path d="M1946,-565L2468,-623L1741,-574Z" fill="#bb7678" stroke="#bb7678" stroke-width="1.51"/><path d="M2368,-150L2468,-623L2001,-278Z" fill="#b77d82" stroke="#b77d82" stroke-width="1.51"/><path d="M2392,336L2468,-623L2368,-150Z" fill="#b08d8e" stroke="#b08d8e" stroke-width="1.51"/><path d="M2452,1106L2468,-623L2392,336Z" fill="#a7adba" stroke="#a7adba" stroke-width="1.51"/><path d="M2361,747L2452,1106L2392,336Z" fill="#729ac9" stroke="#729ac9" stroke-width="1.51"/><path d="M1984,1094L2452,1106L2361,747Z" fill="#5889bf" stroke="#5889bf" stroke-width="1.51"/><path d="M820,1143L2452,1106L1984,1094Z" fill="#739dca" stroke="#739dca" stroke-width="1.51"/><path d="M300,1158L2452,1106L820,1143Z" fill="#9eacc7" stroke="#9eacc7" stroke-width="1.51"/><path d="M-451,592L-375,1153L-108,1072Z" fill="#b97378" stroke="#b97378" stroke-width="1.51"/><path d="M-108,1072L-375,1153L300,1158Z" fill="#af6978" stroke="#af6978" stroke-width="1.51"/></svg>